<svg width="53" height="53" viewBox="0 0 53 53" fill="none" xmlns="http://www.w3.org/2000/svg">
<rect width="53" height="53" fill="white"/>
<path d="M0 4.6582V46.7891H17.1836C20.4544 46.7891 23.0626 47.4437 24.9473 48.7332V48.3418C24.9473 45.7733 22.8575 43.6836 20.2891 43.6836H3.10547V4.6582H0Z" fill="#BA161F"/>
<path d="M32.7109 43.6836C30.1425 43.6836 28.0527 45.7733 28.0527 48.3418C29.3511 47.3693 30.9645 46.7891 32.7109 46.7891H53V43.6836H32.7109Z" fill="#BA161F"/>
<path d="M17.1836 49.8945H0V53H24.6428C23.7904 51.0069 21.1762 49.8945 17.1836 49.8945Z" fill="#BA161F"/>
<path d="M32.7109 4.6582C30.1425 4.6582 28.0527 6.74792 28.0527 9.31641V42.1345C29.3511 41.158 30.9649 40.5781 32.7109 40.5781H53V4.6582H32.7109ZM31.1582 37.4727V7.76367H49.8945V37.4727H31.1582Z" fill="#BA161F"/>
<path d="M28.3196 53H53V49.8945H32.7109C30.6867 49.8945 28.9609 51.1925 28.3196 53Z" fill="#BA161F"/>
<path d="M34.2637 10.8691H46.7891V34.3672H34.2637V10.8691Z" fill="#BA161F"/>
<path d="M12.4219 24.9473H18.7363V34.3672H12.4219V24.9473Z" fill="#BA161F"/>
<path d="M6.21094 40.5781H20.2891C22.0351 40.5781 23.6489 41.158 24.9473 42.1345V4.6582C24.9473 2.08972 22.8575 0 20.2891 0H6.21094V40.5781ZM21.8418 37.4727H9.31641V21.8418H21.8418V37.4727ZM21.8418 3.10547V18.7363H9.31641V3.10547H21.8418Z" fill="#BA161F"/>
<path d="M12.4219 6.21094H18.7363V15.6309H12.4219V6.21094Z" fill="#BA161F"/>
</svg>
