<svg width="43" height="50" viewBox="0 0 43 50" fill="none" xmlns="http://www.w3.org/2000/svg">
<path d="M28.8673 17.6666C26.9205 17.6666 25.3341 16.0802 25.3341 14.1334V0.000732422H4.1351C2.18832 0.000732422 0.601929 1.58713 0.601929 3.5339V21.38C6.58005 22.2456 11.2014 27.351 11.2014 33.5659C11.2014 36.2369 10.3535 38.7738 8.78475 40.8831L10.9259 49.4651H39.4668C41.4171 49.4651 43 47.8823 43 45.932V17.6666H28.8673ZM9.43486 14.1334C8.4597 14.1334 7.66827 13.342 7.66827 12.3668C7.66827 11.3917 8.4597 10.6002 9.43486 10.6002H20.0344C21.0095 10.6002 21.801 11.3917 21.801 12.3668C21.801 13.342 21.0095 14.1334 20.0344 14.1334H9.43486ZM34.1671 35.3324H16.5012C15.526 35.3324 14.7346 34.541 14.7346 33.5659C14.7346 32.5907 15.526 31.7993 16.5012 31.7993H34.1671C35.1422 31.7993 35.9336 32.5907 35.9336 33.5659C35.9336 34.541 35.1422 35.3324 34.1671 35.3324ZM34.1671 24.7329H12.968C11.9929 24.7329 11.2014 23.9415 11.2014 22.9663C11.2014 21.9912 11.9929 21.1998 12.968 21.1998H34.1671C35.1422 21.1998 35.9336 21.9912 35.9336 22.9663C35.9336 23.9415 35.1422 24.7329 34.1671 24.7329Z" fill="white"/>
</svg>
