<svg width="197" height="197" viewBox="0 0 197 197" fill="none" xmlns="http://www.w3.org/2000/svg">
<path d="M191.886 194.436C191.886 193.928 192.037 193.432 192.319 193.01C192.602 192.588 193.003 192.26 193.472 192.066C193.941 191.873 194.458 191.823 194.955 191.923C195.453 192.023 195.91 192.268 196.268 192.628C196.626 192.988 196.869 193.446 196.966 193.944C197.064 194.443 197.011 194.959 196.815 195.427C196.619 195.895 196.288 196.295 195.864 196.575C195.441 196.855 194.944 197.003 194.436 197C194.1 197 193.767 196.934 193.457 196.805C193.147 196.676 192.865 196.486 192.628 196.248C192.391 196.01 192.204 195.727 192.076 195.416C191.949 195.105 191.884 194.772 191.886 194.436ZM156.062 197C156.569 197.003 157.066 196.855 157.49 196.575C157.913 196.295 158.244 195.895 158.44 195.427C158.636 194.959 158.689 194.443 158.592 193.944C158.494 193.446 158.251 192.988 157.893 192.628C157.535 192.268 157.079 192.023 156.581 191.923C156.083 191.823 155.567 191.873 155.098 192.066C154.628 192.26 154.227 192.588 153.945 193.01C153.662 193.432 153.512 193.928 153.512 194.436C153.512 195.114 153.78 195.764 154.258 196.244C154.736 196.725 155.384 196.996 156.062 197ZM117.687 197C118.195 197.003 118.692 196.855 119.115 196.575C119.539 196.295 119.87 195.895 120.066 195.427C120.262 194.959 120.315 194.443 120.217 193.944C120.12 193.446 119.877 192.988 119.519 192.628C119.161 192.268 118.704 192.023 118.206 191.923C117.709 191.823 117.192 191.873 116.723 192.066C116.254 192.26 115.853 192.588 115.57 193.01C115.288 193.432 115.137 193.928 115.137 194.436C115.137 195.114 115.405 195.764 115.883 196.244C116.361 196.725 117.01 196.996 117.687 197ZM79.3128 197C79.8199 197 80.3156 196.85 80.7372 196.568C81.1588 196.286 81.4874 195.886 81.6814 195.417C81.8755 194.949 81.9263 194.433 81.8274 193.936C81.7284 193.439 81.4842 192.982 81.1257 192.623C80.7671 192.265 80.3103 192.021 79.813 191.922C79.3156 191.823 78.8001 191.873 78.3317 192.067C77.8632 192.262 77.4628 192.59 77.1811 193.012C76.8994 193.433 76.749 193.929 76.749 194.436C76.749 195.116 77.0191 195.768 77.4999 196.249C77.9807 196.73 78.6328 197 79.3128 197ZM40.9383 197C41.4454 197 41.9411 196.85 42.3627 196.568C42.7843 196.286 43.1129 195.886 43.307 195.417C43.501 194.949 43.5518 194.433 43.4529 193.936C43.354 193.439 43.1098 192.982 42.7512 192.623C42.3927 192.265 41.9358 192.021 41.4385 191.922C40.9412 191.823 40.4257 191.873 39.9572 192.067C39.4887 192.262 39.0883 192.59 38.8066 193.012C38.5249 193.433 38.3745 193.929 38.3745 194.436C38.3727 194.773 38.4378 195.108 38.5659 195.419C38.6941 195.731 38.8829 196.015 39.1214 196.253C39.3598 196.492 39.6432 196.68 39.955 196.809C40.2669 196.937 40.6011 197.002 40.9383 197ZM2.56385 197C3.07092 197 3.56661 196.85 3.98823 196.568C4.40984 196.286 4.73845 195.886 4.9325 195.417C5.12655 194.949 5.17732 194.433 5.0784 193.936C4.97947 193.439 4.73529 192.982 4.37674 192.623C4.01818 192.265 3.56136 192.021 3.06402 191.922C2.56669 191.823 2.0512 191.873 1.58272 192.067C1.11425 192.262 0.713833 192.59 0.432118 193.012C0.150402 193.433 3.74968e-05 193.929 3.74908e-05 194.436C-0.00179017 194.773 0.0632771 195.108 0.191473 195.419C0.31967 195.731 0.508449 196.015 0.746886 196.253C0.985323 196.492 1.26868 196.68 1.58056 196.809C1.89244 196.937 2.22665 197.002 2.56385 197ZM194.436 158.625C194.944 158.628 195.441 158.48 195.864 158.2C196.288 157.92 196.619 157.521 196.815 157.052C197.011 156.584 197.064 156.068 196.966 155.57C196.869 155.072 196.626 154.614 196.268 154.254C195.91 153.894 195.453 153.648 194.955 153.548C194.458 153.448 193.941 153.498 193.472 153.692C193.003 153.885 192.602 154.214 192.319 154.636C192.037 155.058 191.886 155.554 191.886 156.062C191.886 156.739 192.154 157.389 192.632 157.87C193.11 158.35 193.759 158.622 194.436 158.625ZM156.062 158.625C156.569 158.628 157.066 158.48 157.49 158.2C157.913 157.92 158.244 157.521 158.44 157.052C158.636 156.584 158.689 156.068 158.592 155.57C158.494 155.072 158.251 154.614 157.893 154.254C157.535 153.894 157.079 153.648 156.581 153.548C156.083 153.448 155.567 153.498 155.098 153.692C154.628 153.885 154.227 154.214 153.945 154.636C153.662 155.058 153.512 155.554 153.512 156.062C153.512 156.739 153.78 157.389 154.258 157.87C154.736 158.35 155.384 158.622 156.062 158.625ZM117.687 158.625C118.195 158.628 118.692 158.48 119.115 158.2C119.539 157.92 119.87 157.521 120.066 157.052C120.262 156.584 120.315 156.068 120.217 155.57C120.12 155.072 119.877 154.614 119.519 154.254C119.161 153.894 118.704 153.648 118.206 153.548C117.709 153.448 117.192 153.498 116.723 153.692C116.254 153.885 115.853 154.214 115.57 154.636C115.288 155.058 115.137 155.554 115.137 156.062C115.137 156.739 115.405 157.389 115.883 157.87C116.361 158.35 117.01 158.622 117.687 158.625ZM79.3128 158.625C79.8199 158.625 80.3156 158.475 80.7372 158.193C81.1588 157.912 81.4874 157.511 81.6815 157.043C81.8755 156.574 81.9263 156.059 81.8274 155.562C81.7284 155.064 81.4842 154.607 81.1257 154.249C80.7671 153.89 80.3103 153.646 79.813 153.547C79.3156 153.448 78.8001 153.499 78.3317 153.693C77.8632 153.887 77.4628 154.216 77.1811 154.637C76.8994 155.059 76.749 155.555 76.749 156.062C76.749 156.398 76.8153 156.732 76.9441 157.043C77.073 157.354 77.2618 157.636 77.4999 157.875C77.738 158.113 78.0206 158.301 78.3317 158.43C78.6427 158.559 78.9761 158.625 79.3128 158.625ZM40.9383 158.625C41.4454 158.625 41.9411 158.475 42.3627 158.193C42.7843 157.912 43.1129 157.511 43.307 157.043C43.501 156.574 43.5518 156.059 43.4529 155.562C43.354 155.064 43.1098 154.607 42.7512 154.249C42.3927 153.89 41.9358 153.646 41.4385 153.547C40.9412 153.448 40.4257 153.499 39.9572 153.693C39.4887 153.887 39.0883 154.216 38.8066 154.637C38.5249 155.059 38.3745 155.555 38.3745 156.062C38.3727 156.399 38.4378 156.733 38.5659 157.045C38.6941 157.357 38.8829 157.64 39.1214 157.879C39.3598 158.117 39.6432 158.306 39.955 158.434C40.2669 158.562 40.6011 158.627 40.9383 158.625ZM194.436 120.251C194.944 120.254 195.441 120.106 195.864 119.826C196.288 119.546 196.619 119.146 196.815 118.678C197.011 118.21 197.064 117.694 196.966 117.196C196.869 116.697 196.626 116.239 196.268 115.879C195.91 115.519 195.453 115.274 194.955 115.174C194.458 115.074 193.941 115.124 193.472 115.317C193.003 115.511 192.602 115.839 192.319 116.261C192.037 116.683 191.886 117.18 191.886 117.687C191.886 118.365 192.154 119.015 192.632 119.495C193.11 119.976 193.759 120.247 194.436 120.251ZM156.062 120.251C156.569 120.254 157.066 120.106 157.49 119.826C157.913 119.546 158.244 119.146 158.44 118.678C158.636 118.21 158.689 117.694 158.592 117.196C158.494 116.697 158.251 116.239 157.893 115.879C157.535 115.519 157.079 115.274 156.581 115.174C156.083 115.074 155.567 115.124 155.098 115.317C154.628 115.511 154.227 115.839 153.945 116.261C153.662 116.683 153.512 117.18 153.512 117.687C153.512 118.365 153.78 119.015 154.258 119.495C154.736 119.976 155.384 120.247 156.062 120.251ZM117.687 120.251C118.195 120.254 118.692 120.106 119.115 119.826C119.539 119.546 119.87 119.146 120.066 118.678C120.262 118.21 120.315 117.694 120.217 117.196C120.12 116.697 119.877 116.239 119.519 115.879C119.161 115.519 118.704 115.274 118.206 115.174C117.709 115.074 117.192 115.124 116.723 115.317C116.254 115.511 115.853 115.839 115.57 116.261C115.288 116.683 115.137 117.18 115.137 117.687C115.137 118.365 115.405 119.015 115.883 119.495C116.361 119.976 117.01 120.247 117.687 120.251ZM79.3128 120.251C79.8199 120.251 80.3156 120.101 80.7372 119.819C81.1588 119.537 81.4874 119.137 81.6815 118.668C81.8755 118.2 81.9263 117.684 81.8274 117.187C81.7284 116.69 81.4842 116.233 81.1257 115.874C80.7671 115.516 80.3103 115.272 79.813 115.173C79.3156 115.074 78.8001 115.125 78.3317 115.319C77.8632 115.513 77.4628 115.841 77.1811 116.263C76.8994 116.684 76.749 117.18 76.749 117.687C76.749 118.024 76.8153 118.357 76.9441 118.668C77.073 118.979 77.2618 119.262 77.4999 119.5C77.738 119.738 78.0206 119.927 78.3317 120.056C78.6427 120.185 78.9761 120.251 79.3128 120.251ZM194.436 81.8628C194.944 81.8655 195.442 81.7171 195.866 81.4364C196.289 81.1558 196.62 80.7555 196.816 80.2865C197.012 79.8174 197.064 79.3008 196.965 78.8022C196.867 78.3036 196.622 77.8455 196.263 77.4861C195.903 77.1267 195.445 76.8823 194.947 76.7838C194.448 76.6853 193.932 76.7372 193.463 76.933C192.993 77.1287 192.593 77.4595 192.313 77.8832C192.032 78.3069 191.883 78.8045 191.886 79.3127C191.886 79.989 192.155 80.6377 192.633 81.1159C193.111 81.5941 193.76 81.8628 194.436 81.8628ZM156.062 81.8628C156.57 81.8655 157.068 81.7171 157.491 81.4364C157.915 81.1558 158.246 80.7555 158.442 80.2865C158.637 79.8174 158.689 79.3008 158.591 78.8022C158.492 78.3036 158.248 77.8455 157.888 77.4861C157.529 77.1267 157.071 76.8822 156.572 76.7838C156.074 76.6853 155.557 76.7372 155.088 76.933C154.619 77.1287 154.219 77.4595 153.938 77.8832C153.657 78.3069 153.509 78.8045 153.512 79.3127C153.512 79.989 153.78 80.6377 154.259 81.1159C154.737 81.5941 155.385 81.8628 156.062 81.8628ZM117.687 81.8628C118.196 81.8655 118.693 81.7171 119.117 81.4364C119.541 81.1558 119.871 80.7555 120.067 80.2865C120.263 79.8174 120.315 79.3008 120.216 78.8022C120.118 78.3036 119.873 77.8455 119.514 77.4861C119.155 77.1267 118.696 76.8822 118.198 76.7838C117.699 76.6853 117.183 76.7372 116.714 76.933C116.245 77.1287 115.844 77.4595 115.564 77.8832C115.283 78.3069 115.135 78.8045 115.137 79.3127C115.137 79.989 115.406 80.6377 115.884 81.1159C116.362 81.5941 117.011 81.8628 117.687 81.8628ZM194.436 43.4883C194.944 43.491 195.442 43.3426 195.866 43.062C196.289 42.7813 196.62 42.381 196.816 41.912C197.012 41.4429 197.064 40.9263 196.965 40.4277C196.867 39.9291 196.622 39.471 196.263 39.1116C195.903 38.7522 195.445 38.5078 194.947 38.4093C194.448 38.3108 193.932 38.3627 193.463 38.5585C192.993 38.7543 192.593 39.085 192.313 39.5087C192.032 39.9325 191.883 40.43 191.886 40.9382C191.886 41.6146 192.155 42.2632 192.633 42.7414C193.111 43.2196 193.76 43.4883 194.436 43.4883ZM156.062 43.4883C156.57 43.491 157.068 43.3426 157.491 43.062C157.915 42.7813 158.246 42.381 158.442 41.912C158.637 41.4429 158.689 40.9263 158.591 40.4277C158.492 39.9291 158.248 39.471 157.888 39.1116C157.529 38.7522 157.071 38.5078 156.572 38.4093C156.074 38.3108 155.557 38.3627 155.088 38.5585C154.619 38.7543 154.219 39.085 153.938 39.5087C153.657 39.9325 153.509 40.43 153.512 40.9382C153.512 41.6146 153.78 42.2632 154.259 42.7414C154.737 43.2196 155.385 43.4883 156.062 43.4883ZM194.436 5.1138C194.944 5.11653 195.441 4.96849 195.864 4.68843C196.288 4.40839 196.619 4.00894 196.815 3.54071C197.011 3.07248 197.064 2.55657 196.966 2.05834C196.869 1.56009 196.626 1.10199 196.268 0.742053C195.91 0.382113 195.453 0.136553 194.955 0.0365166C194.458 -0.0635353 193.941 -0.013578 193.472 0.180056C193.003 0.37369 192.602 0.702303 192.319 1.12421C192.037 1.54611 191.886 2.04233 191.886 2.54999C191.886 3.22757 192.154 3.87763 192.632 4.35803C193.11 4.83846 193.759 5.11016 194.436 5.1138Z" fill="white"/>
</svg>
