<svg width="75" height="75" viewBox="0 0 75 75" fill="none" xmlns="http://www.w3.org/2000/svg">
<path d="M49.7158 37.8843L75.0002 53.8687V21.225L49.7158 37.8843Z" fill="#BA161F"/>
<path d="M0 21.225V53.8687L25.2844 37.8843L0 21.225Z" fill="#BA161F"/>
<path d="M70.3125 11.7188H4.6875C2.34844 11.7188 0.492188 13.4625 0.140625 15.7078L37.5 40.3219L74.8594 15.7078C74.5078 13.4625 72.6516 11.7188 70.3125 11.7188Z" fill="#BA161F"/>
<path d="M45.4223 40.7156L38.7894 45.0844C38.3957 45.3422 37.9504 45.4687 37.5004 45.4687C37.0504 45.4687 36.6051 45.3422 36.2113 45.0844L29.5785 40.7109L0.150391 59.325C0.511328 61.5516 2.3582 63.2813 4.68789 63.2813H70.3129C72.6426 63.2813 74.4894 61.5516 74.8504 59.325L45.4223 40.7156Z" fill="#BA161F"/>
</svg>
