<svg width="31" height="31" viewBox="0 0 31 31" fill="none" xmlns="http://www.w3.org/2000/svg">
<path d="M15.5 0C6.93956 0 0 6.93956 0 15.5C0 24.0604 6.93956 31 15.5 31C24.0604 31 31 24.0604 31 15.5C30.9901 6.94369 24.0563 0.0099375 15.5 0ZM15.5 30C7.49187 30 1 23.5081 1 15.5C1 7.49187 7.49187 1 15.5 1C23.5081 1 30 7.49187 30 15.5C29.9912 23.5045 23.5045 29.9912 15.5 30Z" fill="white"/>
<path d="M22.571 8.42901C22.3758 8.23383 22.0593 8.23383 21.864 8.42901L15.5 14.793L9.13601 8.42901C8.9442 8.23039 8.62764 8.22489 8.42901 8.4167C8.23039 8.60851 8.22489 8.92508 8.4167 9.1237C8.4207 9.12789 8.42483 9.13195 8.42901 9.13601L14.793 15.5L8.42901 21.864C8.23039 22.0559 8.22489 22.3724 8.41676 22.571C8.60864 22.7696 8.92514 22.7751 9.12376 22.5833C9.12795 22.5793 9.13201 22.5751 9.13601 22.571L15.5 16.207L21.864 22.571C22.0626 22.7629 22.3791 22.7574 22.571 22.5588C22.7582 22.365 22.7582 22.0578 22.571 21.864L16.207 15.5L22.571 9.13601C22.7662 8.94076 22.7662 8.62426 22.571 8.42901Z" fill="white"/>
</svg>
