<svg width="44" height="34" viewBox="0 0 44 34" fill="none" xmlns="http://www.w3.org/2000/svg">
<path d="M42.0331 24.566L39.3711 23.8055C39.2562 23.7727 39.176 23.6663 39.176 23.5467V22.6582C39.3925 22.5082 39.5991 22.3402 39.7922 22.1528C40.7281 21.2446 41.2435 20.0265 41.2435 18.7226V17.4965L41.5009 16.9819C41.7833 16.4168 41.9326 15.7842 41.9326 15.1526V11.8311C41.9326 11.4752 41.644 11.1866 41.2881 11.1866H35.0857C32.8304 11.1866 30.9954 13.0215 30.9954 15.2769V15.3153C30.9954 15.8405 31.1196 16.3666 31.3545 16.8363L31.6846 17.4965V18.5492C31.6846 20.2176 32.5067 21.7145 33.752 22.6153L33.7522 23.5465C33.7522 23.6902 33.7522 23.7496 33.22 23.9017L31.9211 24.2728L28.1639 22.9066C28.1774 22.7293 28.1175 22.549 27.9882 22.4131L26.7876 21.1517V19.0342C26.9145 18.9296 27.0396 18.8222 27.1609 18.7086C28.6755 17.2889 29.5442 15.2845 29.5442 13.2094V11.5183C30.0016 10.5231 30.2333 9.4699 30.2333 8.38528V1.49396C30.2333 1.138 29.9447 0.849426 29.5888 0.849426H19.9407C16.5453 0.849426 13.783 3.6118 13.783 7.0071V8.38546C13.783 9.47007 14.0148 10.5232 14.4721 11.5185V12.9735C14.4721 15.3828 15.5434 17.5534 17.2288 18.9845V21.1518L16.0281 22.4132C15.8988 22.5491 15.839 22.7294 15.8525 22.9067L11.8869 24.3486C11.5995 24.4531 11.3325 24.5946 11.0901 24.7661L10.4674 24.4547C12.321 23.6479 12.9082 22.5131 12.9364 22.4567C13.0272 22.2753 13.0272 22.0616 12.9364 21.8802C12.4718 20.9509 12.4155 19.2475 12.3703 17.8789C12.3552 17.4232 12.341 16.9928 12.3137 16.6095C12.094 13.518 9.74376 11.1866 6.84681 11.1866C3.94986 11.1866 1.59955 13.5179 1.3799 16.6095C1.35266 16.9929 1.33839 17.4233 1.32335 17.8791C1.27815 19.2476 1.22177 20.9508 0.757195 21.8801C0.666445 22.0615 0.666445 22.2752 0.757195 22.4566C0.785383 22.513 1.37139 23.6455 3.22876 24.4533L1.49909 25.3181C0.574406 25.7808 0 26.7102 0 27.7439V32.5056C0 32.8616 0.288578 33.1501 0.644531 33.1501C1.00048 33.1501 1.28906 32.8616 1.28906 32.5056V27.7439C1.28906 27.2015 1.59045 26.7138 2.07556 26.4712L4.22941 25.3943L4.97862 26.1063C5.50249 26.6041 6.17452 26.8529 6.84681 26.8529C7.51893 26.8529 8.19131 26.6039 8.71501 26.1063L9.46412 25.3944L10.1664 25.7455C9.83572 26.2746 9.64803 26.8951 9.64803 27.545V32.5058C9.64803 32.8617 9.93661 33.1503 10.2926 33.1503C10.6485 33.1503 10.9371 32.8617 10.9371 32.5058V27.545C10.9371 26.6602 11.4958 25.8626 12.3274 25.5602L16.5084 24.0398L18.2489 26.6507C18.4714 26.9845 18.828 27.1985 19.2271 27.2381C19.2717 27.2425 19.3159 27.2446 19.3601 27.2446C19.7123 27.2446 20.0496 27.106 20.3017 26.8539L21.3635 25.7921V32.5059C21.3635 32.8618 21.6521 33.1504 22.0081 33.1504C22.364 33.1504 22.6526 32.8618 22.6526 32.5059V25.7921L23.7145 26.8539C23.9665 27.1061 24.3038 27.2447 24.6561 27.2447C24.7002 27.2447 24.7445 27.2425 24.7889 27.2382C25.1882 27.1986 25.5448 26.9846 25.7672 26.6508L27.5078 24.04L31.6888 25.5603C32.5203 25.8627 33.0791 26.6604 33.0791 27.5452V32.506C33.0791 32.8619 33.3676 33.1505 33.7236 33.1505C34.0795 33.1505 34.3681 32.8619 34.3681 32.506V27.5452C34.3681 26.6491 34.0121 25.8086 33.4148 25.187L33.5741 25.1415C33.7347 25.0957 33.9538 25.0328 34.1738 24.925L35.8194 26.5706V32.506C35.8194 32.8619 36.108 33.1505 36.464 33.1505C36.8199 33.1505 37.1085 32.8619 37.1085 32.506V26.5706L38.7427 24.9364C38.8296 24.9806 38.9208 25.0179 39.0169 25.0453L41.6789 25.8058C42.2865 25.9794 42.7109 26.5421 42.7109 27.1741V32.506C42.7109 32.8619 42.9995 33.1505 43.3555 33.1505C43.7114 33.1505 44 32.8619 44 32.506V27.1741C44 25.9694 43.1912 24.897 42.0331 24.566ZM4.13488 23.4276C2.92927 22.9938 2.32452 22.4154 2.06637 22.0996C2.24237 21.6395 2.35649 21.1125 2.43375 20.5563C2.78919 21.4085 3.38448 22.1361 4.13488 22.6551V23.4276ZM7.82719 25.172C7.27745 25.6943 6.41627 25.6942 5.8667 25.1719L5.26728 24.6023C5.36843 24.4128 5.42403 24.198 5.42403 23.9729V23.2859C5.87366 23.4264 6.35164 23.5022 6.84698 23.5022C7.34173 23.5022 7.81945 23.4261 8.26985 23.2863L8.26977 23.9728C8.26977 24.198 8.32528 24.4129 8.42652 24.6025L7.82719 25.172ZM6.84716 22.2131C4.9225 22.2131 3.3568 20.6474 3.3568 18.7228C3.3568 18.3668 3.06823 18.0783 2.71227 18.0783C2.67618 18.0783 2.64095 18.082 2.60648 18.0877C2.60838 18.0323 2.61018 17.9768 2.61207 17.9219C2.62642 17.4787 2.64026 17.0601 2.66578 16.701C2.74811 15.5429 3.21088 14.4758 3.96885 13.696C4.73361 12.9091 5.75575 12.4758 6.84698 12.4758C7.93822 12.4758 8.96027 12.9091 9.72512 13.696C10.4831 14.4758 10.9459 15.5429 11.0282 16.701C11.0536 17.06 11.0675 17.4785 11.0822 17.9216C11.0834 17.9597 11.0847 17.9983 11.086 18.0366C10.3848 16.9562 9.30179 16.16 7.90247 15.7103C6.60971 15.295 5.49785 15.3207 5.45093 15.3219C5.28215 15.3266 5.12196 15.3973 5.00483 15.5188L3.84192 16.7248C3.59485 16.9811 3.60224 17.3891 3.85851 17.6362C4.11477 17.8833 4.5228 17.8758 4.76988 17.6196L5.73753 16.6161C6.57087 16.6569 9.25186 16.9686 10.2945 19.2646C10.0322 20.9566 8.57794 22.2131 6.84716 22.2131ZM9.55874 23.4298L9.55883 22.661C10.3086 22.1448 10.9048 21.4186 11.2605 20.56C11.3377 21.1149 11.4518 21.6407 11.6274 22.0998C11.3707 22.4126 10.7632 22.9961 9.55874 23.4298ZM15.7612 12.9734V11.3743C15.7612 11.2773 15.7393 11.1814 15.6971 11.094C15.2824 10.2352 15.0721 9.32389 15.0721 8.38546V7.00719C15.0721 4.32259 17.2562 2.13857 19.9407 2.13857H28.9443V8.38554C28.9443 9.32398 28.734 10.2353 28.3192 11.0941C28.277 11.1815 28.2551 11.2773 28.2551 11.3744V13.2096C28.2551 14.955 27.5535 16.574 26.2793 17.7683C26.1203 17.9173 25.9552 18.057 25.7845 18.1872C25.7807 18.1898 25.7771 18.1926 25.7734 18.1953C24.5798 19.1015 23.1179 19.5419 21.5911 19.443C18.322 19.2314 15.7612 16.3896 15.7612 12.9734ZM19.3903 25.9423C19.3858 25.9468 19.3754 25.9574 19.3543 25.9551C19.3334 25.9531 19.3251 25.9408 19.3216 25.9354L17.3171 22.9287L17.9621 22.2509L21.003 24.3294L19.3903 25.9423ZM22.0082 23.455L18.5178 21.0692V19.8661C19.4209 20.3543 20.4322 20.6596 21.5077 20.7293C21.6776 20.7403 21.8464 20.7457 22.0148 20.7457C23.2472 20.7457 24.4333 20.4511 25.4985 19.8919V21.0692L22.0082 23.455ZM24.6947 25.9356C24.6912 25.9409 24.683 25.9532 24.662 25.9553C24.6409 25.958 24.6306 25.9469 24.6261 25.9425L23.0133 24.3297L26.0542 22.251L26.6993 22.9288L24.6947 25.9356ZM36.464 25.3918L35.0013 23.9292C35.0268 23.8133 35.0413 23.6864 35.0412 23.5464L35.0411 23.2744C35.447 23.4076 35.8748 23.4867 36.3174 23.4999C36.3671 23.5014 36.4164 23.5021 36.4659 23.5021C36.955 23.5021 37.4325 23.4282 37.8869 23.2872V23.5467C37.8869 23.6753 37.9031 23.8013 37.9335 23.9224L36.464 25.3918ZM38.8945 21.2278C38.2114 21.8907 37.309 22.2408 36.3562 22.2114C34.491 22.1555 32.9736 20.5126 32.9736 18.5494V17.3444C32.9736 17.2443 32.9503 17.1457 32.9056 17.0562L32.5074 16.2599C32.3616 15.9682 32.2845 15.6416 32.2845 15.3154V15.277C32.2845 13.7323 33.5411 12.4757 35.0857 12.4757H40.6435V15.1527C40.6435 15.5853 40.5413 16.0185 40.3478 16.4055L40.0225 17.0562C39.9777 17.1458 39.9544 17.2443 39.9544 17.3444V18.7227C39.9544 19.6749 39.578 20.5645 38.8945 21.2278Z" fill="white"/>
</svg>
