<svg width="206" height="239" viewBox="0 0 206 239" fill="none" xmlns="http://www.w3.org/2000/svg">
<path d="M-29.8896 232.796C-29.2737 232.796 -28.6717 232.979 -28.1598 233.321C-27.6479 233.664 -27.2493 234.151 -27.0144 234.72C-26.7795 235.289 -26.7188 235.916 -26.8402 236.519C-26.9616 237.123 -27.2595 237.677 -27.6962 238.112C-28.1328 238.546 -28.6886 238.841 -29.2931 238.959C-29.8975 239.077 -30.5235 239.013 -31.0915 238.775C-31.6596 238.537 -32.1442 238.136 -32.4839 237.622C-32.8237 237.108 -33.0033 236.505 -33 235.89C-33 235.482 -32.9194 235.078 -32.7629 234.702C-32.6064 234.325 -32.377 233.984 -32.088 233.696C-31.7989 233.409 -31.4559 233.181 -31.0786 233.027C-30.7013 232.872 -30.2973 232.794 -29.8896 232.796ZM-33 189.334C-33.0033 189.95 -32.8237 190.553 -32.4839 191.066C-32.1442 191.58 -31.6596 191.981 -31.0915 192.219C-30.5235 192.457 -29.8975 192.521 -29.2931 192.403C-28.6886 192.285 -28.1328 191.99 -27.6962 191.556C-27.2595 191.121 -26.9616 190.567 -26.8402 189.963C-26.7188 189.36 -26.7794 188.733 -27.0144 188.164C-27.2493 187.595 -27.6479 187.108 -28.1598 186.765C-28.6717 186.423 -29.2737 186.24 -29.8896 186.24C-30.7116 186.24 -31.5002 186.565 -32.0831 187.145C-32.6659 187.725 -32.9956 188.512 -33 189.334ZM-33 142.778C-33.0033 143.394 -32.8237 143.997 -32.4839 144.511C-32.1442 145.024 -31.6596 145.425 -31.0915 145.663C-30.5235 145.901 -29.8975 145.965 -29.2931 145.847C-28.6886 145.729 -28.1328 145.434 -27.6962 145C-27.2595 144.566 -26.9616 144.011 -26.8402 143.408C-26.7188 142.804 -26.7794 142.178 -27.0144 141.608C-27.2493 141.039 -27.6479 140.552 -28.1598 140.21C-28.6717 139.867 -29.2737 139.684 -29.8896 139.684C-30.7116 139.684 -31.5002 140.01 -32.0831 140.589C-32.6659 141.169 -32.9956 141.956 -33 142.778ZM-33 96.2221C-33 96.8373 -32.8175 97.4386 -32.4758 97.9501C-32.134 98.4617 -31.6482 98.8603 -31.0799 99.0957C-30.5115 99.3312 -29.8861 99.3928 -29.2827 99.2727C-28.6794 99.1527 -28.1252 98.8565 -27.6902 98.4215C-27.2552 97.9865 -26.9589 97.4323 -26.8389 96.8289C-26.7189 96.2255 -26.7805 95.6002 -27.0159 95.0318C-27.2513 94.4634 -27.65 93.9777 -28.1615 93.6359C-28.673 93.2941 -29.2744 93.1117 -29.8896 93.1117C-30.7145 93.1117 -31.5056 93.4394 -32.089 94.0227C-32.6723 94.606 -33 95.3972 -33 96.2221ZM-33 49.6663C-33 50.2814 -32.8175 50.8828 -32.4758 51.3943C-32.134 51.9058 -31.6482 52.3045 -31.0799 52.5399C-30.5115 52.7753 -29.8861 52.8369 -29.2827 52.7169C-28.6794 52.5969 -28.1252 52.3007 -27.6902 51.8657C-27.2552 51.4307 -26.9589 50.8764 -26.8389 50.2731C-26.7189 49.6697 -26.7805 49.0443 -27.0159 48.476C-27.2513 47.9076 -27.65 47.4218 -28.1615 47.0801C-28.673 46.7383 -29.2744 46.5559 -29.8896 46.5559C-30.2986 46.5536 -30.7041 46.6326 -31.0825 46.7881C-31.4608 46.9436 -31.8046 47.1727 -32.0939 47.4619C-32.3832 47.7512 -32.6122 48.095 -32.7677 48.4733C-32.9232 48.8517 -33.0022 49.2572 -33 49.6663ZM-33 3.11043C-33 3.72561 -32.8175 4.32697 -32.4758 4.83848C-32.134 5.34998 -31.6482 5.74865 -31.0798 5.98407C-30.5115 6.21949 -29.8861 6.28109 -29.2827 6.16107C-28.6794 6.04106 -28.1251 5.74482 -27.6902 5.30982C-27.2552 4.87482 -26.9589 4.3206 -26.8389 3.71724C-26.7189 3.11388 -26.7805 2.48848 -27.0159 1.92012C-27.2513 1.35177 -27.65 0.865991 -28.1615 0.524215C-28.673 0.182438 -29.2744 1.55804e-05 -29.8895 1.54729e-05C-30.2986 -0.00220191 -30.7041 0.0767375 -31.0825 0.232265C-31.4608 0.387792 -31.8046 0.616819 -32.0939 0.90609C-32.3832 1.19536 -32.6122 1.53913 -32.7677 1.91751C-32.9232 2.29588 -33.0022 2.70134 -33 3.11043ZM13.5558 235.89C13.5525 236.506 13.7321 237.108 14.0719 237.622C14.4116 238.136 14.8963 238.537 15.4643 238.775C16.0324 239.013 16.6583 239.077 17.2627 238.959C17.8672 238.841 18.423 238.546 18.8597 238.112C19.2963 237.677 19.5942 237.123 19.7156 236.519C19.837 235.916 19.7764 235.289 19.5415 234.72C19.3065 234.151 18.9079 233.664 18.396 233.321C17.8842 232.979 17.2821 232.796 16.6663 232.796C15.8442 232.796 15.0556 233.121 14.4728 233.701C13.8899 234.281 13.5603 235.068 13.5558 235.89ZM13.5559 189.334C13.5525 189.95 13.7321 190.553 14.0719 191.066C14.4117 191.58 14.8963 191.981 15.4643 192.219C16.0324 192.457 16.6583 192.521 17.2628 192.403C17.8672 192.285 18.423 191.99 18.8597 191.556C19.2963 191.121 19.5943 190.567 19.7156 189.963C19.837 189.36 19.7764 188.733 19.5415 188.164C19.3066 187.595 18.9079 187.108 18.396 186.765C17.8842 186.423 17.2822 186.24 16.6663 186.24C15.8442 186.24 15.0556 186.565 14.4728 187.145C13.8899 187.725 13.5603 188.512 13.5559 189.334ZM13.5559 142.778C13.5525 143.394 13.7322 143.997 14.0719 144.511C14.4117 145.024 14.8963 145.425 15.4643 145.663C16.0324 145.901 16.6583 145.965 17.2628 145.847C17.8672 145.729 18.423 145.434 18.8597 145C19.2964 144.566 19.5943 144.011 19.7156 143.408C19.837 142.804 19.7764 142.178 19.5415 141.608C19.3066 141.039 18.9079 140.552 18.396 140.21C17.8842 139.867 17.2822 139.684 16.6663 139.684C15.8442 139.684 15.0556 140.01 14.4728 140.589C13.8899 141.169 13.5603 141.956 13.5559 142.778ZM13.5559 96.2221C13.5559 96.8373 13.7383 97.4387 14.0801 97.9502C14.4218 98.4617 14.9076 98.8603 15.476 99.0957C16.0443 99.3312 16.6697 99.3928 17.2731 99.2728C17.8765 99.1527 18.4307 98.8565 18.8657 98.4215C19.3007 97.9865 19.5969 97.4323 19.7169 96.8289C19.8369 96.2256 19.7753 95.6002 19.5399 95.0318C19.3045 94.4634 18.9058 93.9777 18.3943 93.6359C17.8828 93.2941 17.2815 93.1117 16.6663 93.1117C16.2578 93.1117 15.8533 93.1921 15.476 93.3485C15.0986 93.5048 14.7557 93.7339 14.4669 94.0227C14.1781 94.3115 13.9489 94.6544 13.7926 95.0318C13.6363 95.4092 13.5559 95.8136 13.5559 96.2221ZM13.5559 49.6663C13.5559 50.2815 13.7383 50.8828 14.0801 51.3943C14.4219 51.9058 14.9076 52.3045 15.476 52.5399C16.0443 52.7753 16.6697 52.8369 17.2731 52.7169C17.8765 52.5969 18.4307 52.3007 18.8657 51.8657C19.3007 51.4307 19.5969 50.8764 19.7169 50.2731C19.837 49.6697 19.7754 49.0443 19.5399 48.476C19.3045 47.9076 18.9058 47.4218 18.3943 47.0801C17.8828 46.7383 17.2815 46.5559 16.6663 46.5559C16.2572 46.5536 15.8517 46.6326 15.4734 46.7881C15.095 46.9436 14.7512 47.1727 14.4619 47.4619C14.1727 47.7512 13.9437 48.095 13.7881 48.4733C13.6326 48.8517 13.5537 49.2572 13.5559 49.6663ZM60.1117 235.89C60.1084 236.506 60.288 237.109 60.6277 237.622C60.9675 238.136 61.4521 238.537 62.0202 238.775C62.5882 239.013 63.2141 239.077 63.8186 238.959C64.423 238.841 64.9788 238.546 65.4155 238.112C65.8522 237.677 66.1501 237.123 66.2715 236.519C66.3928 235.916 66.3322 235.289 66.0973 234.72C65.8624 234.151 65.4637 233.664 64.9519 233.321C64.44 232.979 63.838 232.796 63.2221 232.796C62.4001 232.796 61.6114 233.121 61.0286 233.701C60.4458 234.281 60.1161 235.068 60.1117 235.89ZM60.1117 189.334C60.1084 189.95 60.288 190.553 60.6277 191.066C60.9675 191.58 61.4521 191.981 62.0202 192.219C62.5882 192.457 63.2141 192.521 63.8186 192.403C64.4231 192.285 64.9788 191.99 65.4155 191.556C65.8522 191.122 66.1501 190.567 66.2715 189.964C66.3928 189.36 66.3322 188.733 66.0973 188.164C65.8624 187.595 65.4637 187.108 64.9519 186.765C64.44 186.423 63.838 186.24 63.2221 186.24C62.4001 186.24 61.6114 186.565 61.0286 187.145C60.4458 187.725 60.1161 188.512 60.1117 189.334ZM60.1117 142.778C60.1084 143.394 60.288 143.997 60.6278 144.511C60.9675 145.024 61.4521 145.426 62.0202 145.663C62.5882 145.901 63.2141 145.965 63.8186 145.847C64.4231 145.729 64.9788 145.434 65.4155 145C65.8522 144.566 66.1501 144.011 66.2715 143.408C66.3929 142.804 66.3322 142.178 66.0973 141.608C65.8624 141.039 65.4638 140.552 64.9519 140.21C64.44 139.867 63.838 139.684 63.2221 139.684C62.4001 139.684 61.6114 140.01 61.0286 140.589C60.4458 141.169 60.1161 141.956 60.1117 142.778ZM60.1117 96.2221C60.1117 96.8373 60.2941 97.4387 60.6359 97.9502C60.9777 98.4617 61.4635 98.8603 62.0318 99.0958C62.6002 99.3312 63.2256 99.3928 63.8289 99.2728C64.4323 99.1527 64.9865 98.8565 65.4215 98.4215C65.8565 97.9865 66.1527 97.4323 66.2728 96.8289C66.3928 96.2256 66.3312 95.6002 66.0958 95.0318C65.8603 94.4635 65.4617 93.9777 64.9502 93.6359C64.4387 93.2941 63.8373 93.1117 63.2221 93.1117C62.8137 93.1117 62.4092 93.1922 62.0318 93.3485C61.6544 93.5048 61.3116 93.7339 61.0227 94.0227C60.7339 94.3115 60.5048 94.6544 60.3485 95.0318C60.1922 95.4092 60.1117 95.8137 60.1117 96.2221ZM106.684 235.89C106.681 236.506 106.861 237.11 107.201 237.624C107.542 238.138 108.028 238.539 108.597 238.777C109.166 239.014 109.792 239.077 110.397 238.958C111.002 238.838 111.558 238.542 111.994 238.106C112.43 237.67 112.727 237.114 112.846 236.509C112.966 235.904 112.903 235.277 112.665 234.708C112.428 234.139 112.026 233.654 111.512 233.313C110.998 232.973 110.395 232.793 109.778 232.796C108.957 232.796 108.171 233.122 107.59 233.702C107.01 234.282 106.684 235.069 106.684 235.89ZM106.684 189.334C106.681 189.95 106.861 190.554 107.201 191.068C107.542 191.582 108.028 191.983 108.597 192.221C109.166 192.458 109.792 192.521 110.397 192.402C111.002 192.282 111.558 191.986 111.994 191.55C112.43 191.114 112.727 190.558 112.846 189.953C112.966 189.348 112.903 188.722 112.665 188.152C112.428 187.583 112.026 187.098 111.512 186.757C110.998 186.417 110.395 186.237 109.778 186.24C108.957 186.24 108.171 186.566 107.59 187.146C107.01 187.726 106.684 188.513 106.684 189.334ZM106.684 142.778C106.681 143.395 106.861 143.998 107.201 144.512C107.542 145.026 108.028 145.428 108.597 145.665C109.166 145.903 109.792 145.966 110.397 145.846C111.002 145.727 111.558 145.43 111.994 144.994C112.43 144.558 112.727 144.002 112.846 143.397C112.966 142.792 112.903 142.166 112.665 141.597C112.428 141.028 112.026 140.542 111.512 140.202C110.998 139.861 110.395 139.681 109.778 139.684C108.957 139.684 108.171 140.01 107.59 140.59C107.01 141.171 106.684 141.957 106.684 142.778ZM153.24 235.89C153.237 236.506 153.417 237.11 153.757 237.624C154.098 238.138 154.583 238.539 155.152 238.777C155.721 239.014 156.348 239.077 156.953 238.958C157.558 238.838 158.114 238.542 158.55 238.106C158.986 237.67 159.282 237.114 159.402 236.509C159.521 235.904 159.458 235.277 159.221 234.708C158.983 234.139 158.582 233.654 158.068 233.313C157.554 232.973 156.95 232.793 156.334 232.796C155.513 232.796 154.726 233.122 154.146 233.702C153.566 234.282 153.24 235.069 153.24 235.89ZM153.24 189.334C153.237 189.95 153.417 190.554 153.757 191.068C154.098 191.582 154.583 191.983 155.152 192.221C155.721 192.458 156.348 192.521 156.953 192.402C157.558 192.282 158.114 191.986 158.55 191.55C158.986 191.114 159.282 190.558 159.402 189.953C159.521 189.348 159.458 188.722 159.221 188.152C158.983 187.583 158.582 187.098 158.068 186.757C157.554 186.417 156.95 186.237 156.334 186.24C155.513 186.24 154.726 186.566 154.146 187.146C153.566 187.726 153.24 188.513 153.24 189.334ZM199.796 235.89C199.793 236.506 199.972 237.109 200.312 237.622C200.652 238.136 201.136 238.537 201.704 238.775C202.272 239.013 202.898 239.077 203.503 238.959C204.107 238.841 204.663 238.546 205.1 238.112C205.536 237.677 205.834 237.123 205.956 236.519C206.077 235.916 206.016 235.289 205.782 234.72C205.547 234.151 205.148 233.664 204.636 233.321C204.124 232.979 203.522 232.796 202.906 232.796C202.084 232.796 201.296 233.121 200.713 233.701C200.13 234.281 199.8 235.068 199.796 235.89Z" fill="#BA161F"/>
</svg>
