<svg width="34" height="34" viewBox="0 0 34 34" fill="none" xmlns="http://www.w3.org/2000/svg">
<path d="M32.1295 1.87027C30.883 0.623502 29.3813 0 27.6254 0H6.3752C4.61929 0 3.11752 0.623502 1.87052 1.87027C0.623746 3.11728 0.000244141 4.61897 0.000244141 6.37496V27.6249C0.000244141 29.3807 0.623746 30.8826 1.87052 32.1296C3.11752 33.3766 4.61929 34.0001 6.3752 34.0001H27.6251C29.381 34.0001 30.8828 33.3766 32.1293 32.1296C33.3763 30.8826 33.9998 29.3808 33.9998 27.6249V6.37496C33.9997 4.61897 33.3762 3.11704 32.1295 1.87027ZM26.0093 13.0821C26.0241 13.2149 26.0316 13.4138 26.0316 13.6799C26.0316 14.9195 25.8507 16.1628 25.4893 17.4094C25.1279 18.6567 24.5744 19.852 23.8289 20.9955C23.0842 22.139 22.195 23.1502 21.1622 24.0282C20.1291 24.9058 18.8897 25.6071 17.4432 26.1306C15.9974 26.6548 14.4476 26.9169 12.795 26.9169C10.2275 26.9169 7.85162 26.2229 5.6675 24.8363C6.02166 24.8804 6.39079 24.9026 6.77425 24.9026C8.9141 24.9026 10.8399 24.2386 12.5518 22.9101C11.5484 22.8957 10.6518 22.5861 9.86238 21.9804C9.07273 21.3754 8.52319 20.6082 8.21322 19.6784C8.59677 19.7374 8.88448 19.7666 9.07629 19.7666C9.40092 19.7666 9.77733 19.7077 10.2051 19.5899C9.12793 19.383 8.22051 18.8486 7.48265 17.9853C6.74464 17.1219 6.37575 16.1369 6.37575 15.0303V14.986C7.15764 15.3546 7.8955 15.5465 8.58917 15.5614C7.24626 14.6611 6.57485 13.37 6.57485 11.6877C6.57485 10.8613 6.78868 10.0792 7.21664 9.34136C8.38232 10.7729 9.79927 11.9164 11.4666 12.7723C13.134 13.628 14.9198 14.1079 16.8233 14.2111C16.7497 13.9307 16.7127 13.5764 16.7127 13.1486C16.7127 11.8645 17.1665 10.769 18.0741 9.86136C18.9815 8.95379 20.0773 8.49984 21.361 8.49984C22.7189 8.49984 23.8481 8.98697 24.7481 9.96099C25.7664 9.76918 26.7555 9.39269 27.7144 8.83214C27.3456 9.96812 26.659 10.8315 25.656 11.4218C26.6149 11.2888 27.5074 11.038 28.3337 10.6692C27.714 11.6136 26.939 12.4178 26.0093 13.0821Z" fill="#BA161F"/>
</svg>
