<svg width="33" height="32" viewBox="0 0 33 32" fill="none" xmlns="http://www.w3.org/2000/svg">
<path d="M27.8733 22.814H23.3014V27.3733C23.3014 29.9244 25.3769 31.9999 27.928 31.9999H32.5V27.4406C32.5 24.8895 30.4245 22.814 27.8733 22.814Z" fill="white"/>
<path d="M0.5 27.4407V32H5.072C7.62312 32 9.69869 29.9245 9.69869 27.3733V22.814H5.12669C2.5755 22.814 0.5 24.8895 0.5 27.4407Z" fill="white"/>
<path d="M11.9017 22.814H21.1005V32H11.9017V22.814Z" fill="white"/>
<path d="M16.5 10.5015C19.4041 10.5015 21.7583 8.15066 21.7583 5.25075C21.7583 2.35084 19.4041 0 16.5 0C13.5958 0 11.2416 2.35084 11.2416 5.25075C11.2416 8.15066 13.5958 10.5015 16.5 10.5015Z" fill="white"/>
<path d="M13.0249 17.4988L16.5 20.9677L19.9796 17.4942L18.6549 16.1673L17.4374 17.3826L17.4373 12.5855H15.5623L15.5624 17.3825L14.3496 16.1718L13.0249 17.4988Z" fill="white"/>
<path d="M8.50322 11.6018L6.09954 15.7579L5.6556 14.104L3.84473 14.5901L5.11723 19.3309L9.86997 18.0597L9.38547 16.2484L7.72504 16.6925L10.1263 12.5405L8.50322 11.6018Z" fill="white"/>
<path d="M23.1345 18.0597L27.8872 19.3309L29.1599 14.5901L27.3489 14.104L26.905 15.7579L24.5013 11.6018L22.8783 12.5405L25.2795 16.6925L23.619 16.2484L23.1345 18.0597Z" fill="white"/>
</svg>
