<svg width="24" height="30" viewBox="0 0 24 30" fill="none" xmlns="http://www.w3.org/2000/svg">
<path d="M11.9995 0C5.91004 0 0.955322 4.95471 0.955322 11.0448C0.955322 12.6333 1.28046 14.15 1.92121 15.5531C4.68256 21.5956 9.97685 27.9752 11.5341 29.7863C11.6507 29.9217 11.8208 29.9997 11.9998 29.9997C12.1788 29.9997 12.3489 29.9217 12.4656 29.7863C14.0222 27.9755 19.3164 21.5962 22.0787 15.5531C22.7198 14.15 23.0446 12.6333 23.0446 11.0448C23.044 4.95471 18.0893 0 11.9995 0ZM11.9995 16.7815C8.83626 16.7815 6.2625 14.2077 6.2625 11.0445C6.2625 7.88094 8.83626 5.30718 11.9995 5.30718C15.1627 5.30718 17.7365 7.88094 17.7365 11.0445C17.7368 14.2077 15.1631 16.7815 11.9995 16.7815Z" fill="#BA161F"/>
</svg>
