<svg width="57" height="75" viewBox="0 0 57 75" fill="none" xmlns="http://www.w3.org/2000/svg">
<path d="M28.4981 0C13.2745 0 0.887695 12.3868 0.887695 27.612C0.887695 31.5833 1.70053 35.375 3.30242 38.8827C10.2058 53.989 23.4415 69.938 27.3345 74.4658C27.6262 74.8043 28.0514 74.9992 28.4989 74.9992C28.9464 74.9992 29.3716 74.8043 29.6633 74.4658C33.5548 69.9387 46.7905 53.9905 53.6962 38.8827C55.2988 35.375 56.1109 31.5833 56.1109 27.612C56.1094 12.3868 43.7226 0 28.4981 0ZM28.4981 41.9537C20.59 41.9537 14.1556 35.5193 14.1556 27.6112C14.1556 19.7023 20.59 13.2679 28.4981 13.2679C36.4063 13.2679 42.8407 19.7023 42.8407 27.6112C42.8414 35.5193 36.407 41.9537 28.4981 41.9537Z" fill="#BA161F"/>
</svg>
