<svg width="75" height="75" viewBox="0 0 75 75" fill="none" xmlns="http://www.w3.org/2000/svg">
<g clip-path="url(#clip0)">
<path d="M70.8753 4.1256C68.1258 1.37537 64.813 0 60.9397 0H14.0644C10.191 0 6.8783 1.37537 4.12755 4.1256C1.37732 6.87634 0.00195312 10.1889 0.00195312 14.0624V60.9372C0.00195312 64.8103 1.37732 68.1232 4.12755 70.874C6.8783 73.6247 10.191 75.0001 14.0644 75.0001H60.9392C64.8125 75.0001 68.1253 73.6247 70.8748 70.874C73.6256 68.1232 75.0009 64.8105 75.0009 60.9372V14.0624C75.0007 10.1889 73.6254 6.87582 70.8753 4.1256ZM61.4261 56.9292C60.7425 58.4264 59.2045 59.7291 56.8124 60.8364C54.4198 61.9438 52.2951 62.4974 50.4392 62.4974C49.9183 62.4974 49.3647 62.4572 48.7789 62.3758C48.193 62.2939 47.6974 62.213 47.2905 62.1316C46.8838 62.0502 46.3459 61.904 45.6793 61.6921C45.0114 61.481 44.5308 61.3177 44.2389 61.204C43.9451 61.0904 43.4084 60.8869 42.6277 60.5941C41.8463 60.3003 41.3575 60.1212 41.1634 60.0574C35.8249 58.1031 30.6076 54.5799 25.5135 49.4858C20.4194 44.3905 16.8955 39.1744 14.9422 33.8368C14.8776 33.6413 14.6985 33.1529 14.4052 32.372C14.1124 31.5913 13.9084 31.0537 13.7945 30.7611C13.6813 30.4682 13.5183 29.9879 13.3066 29.3211C13.095 28.6536 12.949 28.1169 12.8674 27.7096C12.7856 27.3032 12.7049 26.8071 12.6233 26.221C12.5419 25.6349 12.5014 25.0808 12.5014 24.5603C12.5014 22.7047 13.055 20.5808 14.162 18.1882C15.2689 15.7959 16.5707 14.2579 18.0684 13.5741C19.7937 12.8577 21.4375 12.4996 23.0002 12.4996C23.3578 12.4996 23.6186 12.5324 23.7809 12.5974C23.9439 12.6633 24.2126 12.9555 24.5871 13.4765C24.9616 13.9974 25.3683 14.6564 25.8077 15.454C26.2472 16.2518 26.6786 17.025 27.1017 17.7734C27.5248 18.522 27.9318 19.2622 28.3226 19.9952C28.7132 20.727 28.9573 21.1915 29.0548 21.3861C29.1524 21.5498 29.3641 21.8585 29.6894 22.3146C30.0147 22.7701 30.2594 23.1764 30.4219 23.5349C30.5844 23.893 30.666 24.2349 30.666 24.5603C30.666 25.0493 30.332 25.6431 29.6648 26.3424C28.9973 27.0424 28.2648 27.6856 27.4671 28.2717C26.6695 28.8578 25.9373 29.4846 25.27 30.1519C24.6032 30.8188 24.2692 31.364 24.2692 31.7873C24.2692 32.0152 24.3261 32.2836 24.4402 32.5928C24.5541 32.9027 24.66 33.1549 24.7576 33.3499C24.8553 33.545 25.0102 33.8219 25.2214 34.1804C25.433 34.5389 25.5717 34.7665 25.6363 34.8643C27.4264 38.0869 29.4857 40.8621 31.8127 43.1899C34.1407 45.518 36.9153 47.5763 40.1385 49.3668C40.2354 49.4324 40.4637 49.5704 40.8232 49.7823C41.1808 49.993 41.4582 50.1477 41.6532 50.2453C41.8487 50.343 42.1003 50.449 42.41 50.562C42.7197 50.6756 42.9882 50.7329 43.217 50.7329C43.7363 50.7329 44.4527 50.1962 45.3651 49.1222C46.2763 48.0471 47.2046 46.9813 48.1487 45.9232C49.092 44.8661 49.8563 44.3371 50.4435 44.3371C50.7688 44.3371 51.11 44.418 51.4694 44.5807C51.8277 44.7433 52.2338 44.988 52.6892 45.3133C53.1456 45.64 53.4547 45.8507 53.6175 45.9497L56.2042 47.3643C57.9297 48.2761 59.3701 49.0815 60.526 49.7815C61.6819 50.4815 62.3088 50.9614 62.4066 51.2213C62.4714 51.384 62.503 51.6451 62.503 52.0033C62.5018 53.5644 62.1435 55.2084 61.4261 56.9292Z" fill="#D11A24"/>
</g>
<defs>
<clipPath id="clip0">
<rect width="75" height="75" fill="white"/>
</clipPath>
</defs>
</svg>
