<svg width="34" height="34" viewBox="0 0 34 34" fill="none" xmlns="http://www.w3.org/2000/svg">
<path d="M24.9337 0.000488281V9.06674H34L24.9337 0.000488281Z" fill="white"/>
<path d="M11.3026 32.5914L9.56644 25.6263C10.6499 24.595 11.3344 23.1444 11.3344 21.5329C11.3344 18.4095 8.79128 15.8665 5.66795 15.8665C2.54463 15.8665 0.0015472 18.4095 0.0015472 21.5329C0.0015472 23.1444 0.686049 24.595 1.76947 25.6263L0.0332791 32.5914C-0.0732494 33.0198 0.0808769 33.4731 0.425394 33.7519C0.769912 34.0284 1.24589 34.076 1.64027 33.8811L5.66795 31.8661L9.69337 33.8811C9.8543 33.9582 10.0288 33.999 10.2011 33.999C10.4527 33.999 10.7043 33.9151 10.9105 33.7519C11.255 33.4731 11.4092 33.0221 11.3026 32.5914ZM5.66795 24.9327C3.79351 24.9327 2.26811 23.4073 2.26811 21.5329C2.26811 19.6584 3.79351 18.133 5.66795 18.133C7.5424 18.133 9.0678 19.6584 9.0678 21.5329C9.0678 23.4073 7.5424 24.9327 5.66795 24.9327Z" fill="white"/>
<path d="M24.9338 11.3333C23.6849 11.3333 22.6672 10.3156 22.6672 9.06674V0.000488281H9.06783C7.81896 0.000488281 6.80127 1.01818 6.80127 2.26705V13.7155C10.6363 14.2708 13.601 17.546 13.601 21.5328C13.601 23.2464 13.057 24.8738 12.0506 26.2269L13.4242 31.7324H31.7335C32.9846 31.7324 34 30.7169 34 29.4658V11.3333H24.9338ZM12.4677 9.06674C11.8421 9.06674 11.3344 8.55903 11.3344 7.93346C11.3344 7.30789 11.8421 6.80018 12.4677 6.80018H19.2674C19.8929 6.80018 20.4006 7.30789 20.4006 7.93346C20.4006 8.55903 19.8929 9.06674 19.2674 9.06674H12.4677ZM28.3336 22.6661H17.0008C16.3752 22.6661 15.8675 22.1584 15.8675 21.5328C15.8675 20.9073 16.3752 20.3996 17.0008 20.3996H28.3336C28.9592 20.3996 29.4669 20.9073 29.4669 21.5328C29.4669 22.1584 28.9592 22.6661 28.3336 22.6661ZM28.3336 15.8664H14.7342C14.1087 15.8664 13.601 15.3587 13.601 14.7331C13.601 14.1076 14.1087 13.5999 14.7342 13.5999H28.3336C28.9592 13.5999 29.4669 14.1076 29.4669 14.7331C29.4669 15.3587 28.9592 15.8664 28.3336 15.8664Z" fill="white"/>
</svg>
