<svg width="53" height="53" viewBox="0 0 53 53" fill="none" xmlns="http://www.w3.org/2000/svg">
<path d="M45.3372 37.7856H37.7649V45.337C37.7649 49.5623 41.2024 52.9999 45.4277 52.9999H53.0001V45.4485C53.0001 41.2232 49.5625 37.7856 45.3372 37.7856Z" fill="#BA161F"/>
<path d="M0 45.4486V53H7.57237C11.7977 53 15.2353 49.5624 15.2353 45.3371V37.7858H7.66295C3.43755 37.7857 0 41.2232 0 45.4486Z" fill="#BA161F"/>
<path d="M18.884 37.7856H34.1195V53H18.884V37.7856Z" fill="#BA161F"/>
<path d="M26.5 17.3931C31.3099 17.3931 35.2091 13.4995 35.2091 8.69656C35.2091 3.89358 31.3099 0 26.5 0C21.69 0 17.7908 3.89358 17.7908 8.69656C17.7908 13.4995 21.69 17.3931 26.5 17.3931Z" fill="#BA161F"/>
<path d="M20.7444 28.9823L26.5 34.7277L32.2631 28.9747L30.0691 26.777L28.0526 28.79L28.0524 20.8447H24.9469L24.9471 28.7898L22.9384 26.7846L20.7444 28.9823Z" fill="#BA161F"/>
<path d="M13.2554 19.2155L9.27433 26.0989L8.53905 23.3597L5.53979 24.1647L7.64737 32.0168L15.5191 29.9114L14.7167 26.9114L11.9666 27.6469L15.9436 20.7702L13.2554 19.2155Z" fill="#BA161F"/>
<path d="M37.4884 29.9114L45.36 32.0168L47.4678 24.1647L44.4684 23.3597L43.7332 26.099L39.7521 19.2155L37.064 20.7702L41.041 27.6469L38.2907 26.9114L37.4884 29.9114Z" fill="#BA161F"/>
</svg>
