<svg width="37" height="37" viewBox="0 0 37 37" fill="none" xmlns="http://www.w3.org/2000/svg">
<g clip-path="url(#clip0)">
<path d="M33.2231 13.9863C32.6044 13.9863 32.103 14.4879 32.103 15.1064V22.7265C32.103 23.3452 31.6015 23.8467 30.9829 23.8467H6.0172C5.39853 23.8467 4.89708 23.3452 4.89708 22.7265V15.1065C4.89708 14.4879 4.39556 13.9864 3.77696 13.9864H1.36437C0.610861 13.9864 0 14.5973 0 15.3508V26.899C0 27.5177 0.501523 28.0192 1.12012 28.0192H4.76953V29.3231C4.76953 29.9087 5.21946 30.4142 5.80445 30.4401C6.42543 30.4674 6.9375 29.972 6.9375 29.3571V28.0192H30.0625V29.3231C30.0625 29.9087 30.5124 30.4142 31.0974 30.4401C31.7184 30.4674 32.2305 29.9721 32.2305 29.3572V28.0192H35.8799C36.4986 28.0192 37 27.5177 37 26.8991V15.3507C37 14.5972 36.3891 13.9863 35.6356 13.9863H33.2231Z" fill="black"/>
<path d="M7.06508 15.3509V17.3529H17.4166V7.50319C16.7983 6.919 15.9663 6.5589 15.0538 6.5589H7.77068C5.87501 6.5589 4.32397 8.10994 4.32397 10.0056V11.9089C5.89185 12.2694 7.06508 13.6753 7.06508 15.3509Z" fill="black"/>
<path d="M17.4165 19.5208H7.06506V20.0572V21.6787H17.4203C17.4186 21.6538 17.4165 21.6289 17.4165 21.6036V20.0572V19.5208Z" fill="black"/>
<path d="M29.9349 15.351C29.9349 13.6749 31.1086 12.2688 32.6769 11.9087V10.0056C32.6769 8.10994 31.1258 6.5589 29.2302 6.5589H21.9471C21.0346 6.5589 20.2026 6.91893 19.5844 7.50319V17.3529H29.9349V15.351Z" fill="black"/>
<path d="M29.935 20.0572V19.5209H19.5844V20.0572V21.6036C19.5844 21.629 19.5824 21.6539 19.5807 21.6788H29.9351V20.0572H29.935Z" fill="black"/>
</g>
<defs>
<clipPath id="clip0">
<rect width="37" height="37" fill="white"/>
</clipPath>
</defs>
</svg>
